<mxfile host="app.diagrams.net" agent="Mozilla/5.0 (Windows NT 10.0; Win64; x64) AppleWebKit/537.36 (KHTML, like Gecko) Chrome/137.0.0.0 Safari/537.36" version="27.2.0">
  <diagram name="AOA Diagram CPM" id="0">
    <mxGraphModel grid="0" page="0" gridSize="10" guides="0" tooltips="1" connect="1" arrows="1" fold="1" pageScale="1" pageWidth="850" pageHeight="1100" math="0" shadow="0">
      <root>
        <mxCell id="0" />
        <mxCell id="1" parent="0" />
        <mxCell id="V5MwP_LQJQA790HmhcRP-66668499" value="" style="ellipse;whiteSpace=wrap;html=1;aspect=fixed;rotation=0;" vertex="1" parent="1">
          <mxGeometry x="-53" y="408" width="34" height="34" as="geometry" />
        </mxCell>
        <mxCell id="V5MwP_LQJQA790HmhcRP-66668503" value="Boton&lt;div&gt;PLAY NOW&lt;/div&gt;" style="text;html=1;align=center;verticalAlign=middle;whiteSpace=wrap;rounded=0;" vertex="1" parent="1">
          <mxGeometry x="-66" y="458" width="60" height="30" as="geometry" />
        </mxCell>
        <mxCell id="V5MwP_LQJQA790HmhcRP-66668504" value="" style="ellipse;whiteSpace=wrap;html=1;aspect=fixed;rotation=0;" vertex="1" parent="1">
          <mxGeometry x="96" y="217" width="34" height="34" as="geometry" />
        </mxCell>
        <mxCell id="V5MwP_LQJQA790HmhcRP-66668505" value="Registrarse" style="text;html=1;align=center;verticalAlign=middle;whiteSpace=wrap;rounded=0;" vertex="1" parent="1">
          <mxGeometry x="80" y="258" width="60" height="30" as="geometry" />
        </mxCell>
        <mxCell id="V5MwP_LQJQA790HmhcRP-66668506" value="" style="ellipse;whiteSpace=wrap;html=1;aspect=fixed;rotation=0;" vertex="1" parent="1">
          <mxGeometry x="85" y="407" width="34" height="34" as="geometry" />
        </mxCell>
        <mxCell id="V5MwP_LQJQA790HmhcRP-66668507" value="Iniciar sesión" style="text;html=1;align=center;verticalAlign=middle;whiteSpace=wrap;rounded=0;" vertex="1" parent="1">
          <mxGeometry x="75" y="463" width="60" height="30" as="geometry" />
        </mxCell>
        <mxCell id="y1Z0iLRCGN_JdT7vQk1x-2" value="Volver al inicio" style="text;html=1;align=center;verticalAlign=middle;whiteSpace=wrap;rounded=0;" vertex="1" parent="1">
          <mxGeometry x="195" y="636" width="60" height="30" as="geometry" />
        </mxCell>
        <mxCell id="y1Z0iLRCGN_JdT7vQk1x-4" value="" style="endArrow=none;html=1;rounded=0;entryX=0;entryY=1;entryDx=0;entryDy=0;" edge="1" parent="1" target="V5MwP_LQJQA790HmhcRP-66668504">
          <mxGeometry width="50" height="50" relative="1" as="geometry">
            <mxPoint x="-25" y="406" as="sourcePoint" />
            <mxPoint x="25" y="356" as="targetPoint" />
          </mxGeometry>
        </mxCell>
        <mxCell id="V5MwP_LQJQA790HmhcRP-66668511" value="" style="rhombus;whiteSpace=wrap;html=1;rotation=45;" vertex="1" parent="1">
          <mxGeometry x="198" y="569" width="54" height="54" as="geometry" />
        </mxCell>
        <mxCell id="y1Z0iLRCGN_JdT7vQk1x-6" value="" style="endArrow=none;html=1;rounded=0;entryX=0;entryY=0.5;entryDx=0;entryDy=0;exitX=1;exitY=0.5;exitDx=0;exitDy=0;" edge="1" parent="1" source="V5MwP_LQJQA790HmhcRP-66668499" target="V5MwP_LQJQA790HmhcRP-66668506">
          <mxGeometry width="50" height="50" relative="1" as="geometry">
            <mxPoint x="2" y="438" as="sourcePoint" />
            <mxPoint x="52" y="388" as="targetPoint" />
          </mxGeometry>
        </mxCell>
        <mxCell id="y1Z0iLRCGN_JdT7vQk1x-8" style="edgeStyle=orthogonalEdgeStyle;rounded=0;orthogonalLoop=1;jettySize=auto;html=1;exitX=0.5;exitY=1;exitDx=0;exitDy=0;" edge="1" parent="1" source="y1Z0iLRCGN_JdT7vQk1x-2" target="y1Z0iLRCGN_JdT7vQk1x-2">
          <mxGeometry relative="1" as="geometry" />
        </mxCell>
        <mxCell id="y1Z0iLRCGN_JdT7vQk1x-5" value="" style="endArrow=none;html=1;rounded=0;exitX=1;exitY=1;exitDx=0;exitDy=0;" edge="1" parent="1" source="V5MwP_LQJQA790HmhcRP-66668499" target="V5MwP_LQJQA790HmhcRP-66668511">
          <mxGeometry width="50" height="50" relative="1" as="geometry">
            <mxPoint x="-42" y="578" as="sourcePoint" />
            <mxPoint x="8" y="528" as="targetPoint" />
          </mxGeometry>
        </mxCell>
        <mxCell id="y1Z0iLRCGN_JdT7vQk1x-16" value="" style="whiteSpace=wrap;html=1;aspect=fixed;" vertex="1" parent="1">
          <mxGeometry x="206" y="416" width="34" height="34" as="geometry" />
        </mxCell>
        <mxCell id="V5MwP_LQJQA790HmhcRP-66668514" value="Inicia Juego" style="text;html=1;align=center;verticalAlign=middle;whiteSpace=wrap;rounded=0;" vertex="1" parent="1">
          <mxGeometry x="193" y="470" width="60" height="30" as="geometry" />
        </mxCell>
        <mxCell id="y1Z0iLRCGN_JdT7vQk1x-24" value="" style="endArrow=none;html=1;rounded=0;exitX=1;exitY=0.5;exitDx=0;exitDy=0;entryX=0;entryY=0.25;entryDx=0;entryDy=0;" edge="1" parent="1" source="V5MwP_LQJQA790HmhcRP-66668506" target="y1Z0iLRCGN_JdT7vQk1x-16">
          <mxGeometry width="50" height="50" relative="1" as="geometry">
            <mxPoint x="232" y="407" as="sourcePoint" />
            <mxPoint x="339" y="405.288" as="targetPoint" />
          </mxGeometry>
        </mxCell>
        <mxCell id="V5MwP_LQJQA790HmhcRP-66668517" value="Volver al inicio" style="text;html=1;align=center;verticalAlign=middle;whiteSpace=wrap;rounded=0;" vertex="1" parent="1">
          <mxGeometry x="195.00376618407353" y="359.0037661840735" width="60" height="30" as="geometry" />
        </mxCell>
        <mxCell id="V5MwP_LQJQA790HmhcRP-66668518" value="" style="rhombus;whiteSpace=wrap;html=1;rotation=45;" vertex="1" parent="1">
          <mxGeometry x="195" y="294" width="59" height="56" as="geometry" />
        </mxCell>
        <mxCell id="V5MwP_LQJQA790HmhcRP-66668519" style="edgeStyle=orthogonalEdgeStyle;rounded=0;orthogonalLoop=1;jettySize=auto;html=1;exitX=0.5;exitY=1;exitDx=0;exitDy=0;" edge="1" parent="1" source="V5MwP_LQJQA790HmhcRP-66668517" target="V5MwP_LQJQA790HmhcRP-66668517">
          <mxGeometry relative="1" as="geometry" />
        </mxCell>
        <mxCell id="V5MwP_LQJQA790HmhcRP-66668520" value="" style="ellipse;whiteSpace=wrap;html=1;aspect=fixed;rotation=0;" vertex="1" parent="1">
          <mxGeometry x="326" y="198" width="34" height="34" as="geometry" />
        </mxCell>
        <mxCell id="V5MwP_LQJQA790HmhcRP-66668521" value="Iniciar sesión&lt;br&gt;(ya tienes cuenta?)" style="text;html=1;align=center;verticalAlign=middle;whiteSpace=wrap;rounded=0;" vertex="1" parent="1">
          <mxGeometry x="279" y="248" width="135" height="30" as="geometry" />
        </mxCell>
        <mxCell id="V5MwP_LQJQA790HmhcRP-66668522" value="" style="whiteSpace=wrap;html=1;aspect=fixed;" vertex="1" parent="1">
          <mxGeometry x="462" y="196" width="36" height="36" as="geometry" />
        </mxCell>
        <mxCell id="V5MwP_LQJQA790HmhcRP-66668523" value="Inicia Juego" style="text;html=1;align=center;verticalAlign=middle;whiteSpace=wrap;rounded=0;" vertex="1" parent="1">
          <mxGeometry x="453" y="245" width="60" height="30" as="geometry" />
        </mxCell>
        <mxCell id="y1Z0iLRCGN_JdT7vQk1x-28" value="" style="endArrow=none;html=1;rounded=0;entryX=0;entryY=0.5;entryDx=0;entryDy=0;exitX=1;exitY=0;exitDx=0;exitDy=0;" edge="1" parent="1" source="V5MwP_LQJQA790HmhcRP-66668504" target="V5MwP_LQJQA790HmhcRP-66668520">
          <mxGeometry width="50" height="50" relative="1" as="geometry">
            <mxPoint x="158" y="245" as="sourcePoint" />
            <mxPoint x="208" y="195" as="targetPoint" />
          </mxGeometry>
        </mxCell>
        <mxCell id="y1Z0iLRCGN_JdT7vQk1x-30" value="" style="endArrow=none;html=1;rounded=0;exitX=1;exitY=0.5;exitDx=0;exitDy=0;entryX=0;entryY=0.5;entryDx=0;entryDy=0;" edge="1" parent="1" source="V5MwP_LQJQA790HmhcRP-66668520" target="V5MwP_LQJQA790HmhcRP-66668522">
          <mxGeometry width="50" height="50" relative="1" as="geometry">
            <mxPoint x="315" y="232" as="sourcePoint" />
            <mxPoint x="365" y="182" as="targetPoint" />
          </mxGeometry>
        </mxCell>
        <mxCell id="y1Z0iLRCGN_JdT7vQk1x-32" value="" style="endArrow=none;html=1;rounded=0;exitX=1;exitY=1;exitDx=0;exitDy=0;" edge="1" parent="1" source="V5MwP_LQJQA790HmhcRP-66668504" target="V5MwP_LQJQA790HmhcRP-66668518">
          <mxGeometry width="50" height="50" relative="1" as="geometry">
            <mxPoint x="158" y="302" as="sourcePoint" />
            <mxPoint x="208" y="252" as="targetPoint" />
          </mxGeometry>
        </mxCell>
        <mxCell id="V5MwP_LQJQA790HmhcRP-66668525" value="" style="ellipse;whiteSpace=wrap;html=1;aspect=fixed;rotation=0;" vertex="1" parent="1">
          <mxGeometry x="190" y="91" width="34" height="34" as="geometry" />
        </mxCell>
        <mxCell id="V5MwP_LQJQA790HmhcRP-66668526" value="Guardar&lt;div&gt;registro&lt;/div&gt;" style="text;html=1;align=center;verticalAlign=middle;whiteSpace=wrap;rounded=0;" vertex="1" parent="1">
          <mxGeometry x="177" y="144" width="60" height="30" as="geometry" />
        </mxCell>
        <mxCell id="V5MwP_LQJQA790HmhcRP-66668527" value="" style="ellipse;whiteSpace=wrap;html=1;aspect=fixed;rotation=0;" vertex="1" parent="1">
          <mxGeometry x="324" y="90" width="34" height="34" as="geometry" />
        </mxCell>
        <mxCell id="V5MwP_LQJQA790HmhcRP-66668528" value="Iniciar sesión" style="text;html=1;align=center;verticalAlign=middle;whiteSpace=wrap;rounded=0;" vertex="1" parent="1">
          <mxGeometry x="296" y="138" width="95" height="30" as="geometry" />
        </mxCell>
        <mxCell id="V5MwP_LQJQA790HmhcRP-66668529" value="" style="whiteSpace=wrap;html=1;aspect=fixed;" vertex="1" parent="1">
          <mxGeometry x="462" y="88" width="36" height="36" as="geometry" />
        </mxCell>
        <mxCell id="V5MwP_LQJQA790HmhcRP-66668530" value="" style="endArrow=none;html=1;rounded=0;exitX=1;exitY=0.5;exitDx=0;exitDy=0;entryX=0;entryY=0.5;entryDx=0;entryDy=0;" edge="1" parent="1" source="V5MwP_LQJQA790HmhcRP-66668527" target="V5MwP_LQJQA790HmhcRP-66668529">
          <mxGeometry width="50" height="50" relative="1" as="geometry">
            <mxPoint x="318" y="67" as="sourcePoint" />
            <mxPoint x="368" y="17" as="targetPoint" />
          </mxGeometry>
        </mxCell>
        <mxCell id="V5MwP_LQJQA790HmhcRP-66668531" value="Inicia Juego" style="text;html=1;align=center;verticalAlign=middle;whiteSpace=wrap;rounded=0;" vertex="1" parent="1">
          <mxGeometry x="451" y="141" width="60" height="30" as="geometry" />
        </mxCell>
        <mxCell id="y1Z0iLRCGN_JdT7vQk1x-43" value="" style="endArrow=none;html=1;rounded=0;entryX=0;entryY=1;entryDx=0;entryDy=0;" edge="1" parent="1" target="V5MwP_LQJQA790HmhcRP-66668525">
          <mxGeometry width="50" height="50" relative="1" as="geometry">
            <mxPoint x="115" y="215" as="sourcePoint" />
            <mxPoint x="127" y="130" as="targetPoint" />
          </mxGeometry>
        </mxCell>
        <mxCell id="V5MwP_LQJQA790HmhcRP-66668533" value="" style="ellipse;whiteSpace=wrap;html=1;aspect=fixed;rotation=0;" vertex="1" parent="1">
          <mxGeometry x="-314" y="408" width="34" height="34" as="geometry" />
        </mxCell>
        <mxCell id="V5MwP_LQJQA790HmhcRP-66668534" value="Página&lt;div&gt;Bienvenida&lt;/div&gt;" style="text;html=1;align=center;verticalAlign=middle;whiteSpace=wrap;rounded=0;" vertex="1" parent="1">
          <mxGeometry x="-380" y="421" width="60" height="8" as="geometry" />
        </mxCell>
        <mxCell id="y1Z0iLRCGN_JdT7vQk1x-47" value="" style="endArrow=none;html=1;rounded=0;exitX=1;exitY=0.5;exitDx=0;exitDy=0;entryX=0;entryY=0.5;entryDx=0;entryDy=0;" edge="1" parent="1" source="V5MwP_LQJQA790HmhcRP-66668525" target="V5MwP_LQJQA790HmhcRP-66668527">
          <mxGeometry width="50" height="50" relative="1" as="geometry">
            <mxPoint x="244" y="127" as="sourcePoint" />
            <mxPoint x="294" y="77" as="targetPoint" />
          </mxGeometry>
        </mxCell>
        <mxCell id="V5MwP_LQJQA790HmhcRP-66668535" value="" style="endArrow=none;html=1;rounded=0;entryX=0;entryY=0.5;entryDx=0;entryDy=0;exitX=1;exitY=0.5;exitDx=0;exitDy=0;" edge="1" parent="1" source="V5MwP_LQJQA790HmhcRP-66668533" target="V5MwP_LQJQA790HmhcRP-66668499">
          <mxGeometry width="50" height="50" relative="1" as="geometry">
            <mxPoint x="-310" y="433" as="sourcePoint" />
            <mxPoint x="-108" y="492" as="targetPoint" />
          </mxGeometry>
        </mxCell>
        <mxCell id="y1Z0iLRCGN_JdT7vQk1x-50" style="edgeStyle=orthogonalEdgeStyle;rounded=0;orthogonalLoop=1;jettySize=auto;html=1;exitX=0.5;exitY=1;exitDx=0;exitDy=0;" edge="1" parent="1" source="V5MwP_LQJQA790HmhcRP-66668533" target="V5MwP_LQJQA790HmhcRP-66668533">
          <mxGeometry relative="1" as="geometry" />
        </mxCell>
        <mxCell id="V5MwP_LQJQA790HmhcRP-66668538" value="" style="whiteSpace=wrap;html=1;aspect=fixed;" vertex="1" parent="1">
          <mxGeometry x="-57" y="261" width="34" height="34" as="geometry" />
        </mxCell>
        <mxCell id="V5MwP_LQJQA790HmhcRP-66668539" value="Info" style="text;html=1;align=center;verticalAlign=middle;whiteSpace=wrap;rounded=0;" vertex="1" parent="1">
          <mxGeometry x="-70" y="299" width="60" height="30" as="geometry" />
        </mxCell>
        <mxCell id="V5MwP_LQJQA790HmhcRP-66668540" value="" style="endArrow=none;html=1;rounded=0;entryX=0;entryY=0.5;entryDx=0;entryDy=0;exitX=1;exitY=0;exitDx=0;exitDy=0;" edge="1" parent="1" source="V5MwP_LQJQA790HmhcRP-66668533" target="V5MwP_LQJQA790HmhcRP-66668538">
          <mxGeometry width="50" height="50" relative="1" as="geometry">
            <mxPoint x="-381" y="369" as="sourcePoint" />
            <mxPoint x="-77" y="369" as="targetPoint" />
          </mxGeometry>
        </mxCell>
        <mxCell id="V5MwP_LQJQA790HmhcRP-66668541" value="" style="ellipse;whiteSpace=wrap;html=1;aspect=fixed;rotation=0;" vertex="1" parent="1">
          <mxGeometry x="-48" y="689" width="34" height="34" as="geometry" />
        </mxCell>
        <mxCell id="V5MwP_LQJQA790HmhcRP-66668542" value="Como Jugar" style="text;html=1;align=center;verticalAlign=middle;whiteSpace=wrap;rounded=0;" vertex="1" parent="1">
          <mxGeometry x="-61" y="737" width="60" height="30" as="geometry" />
        </mxCell>
        <mxCell id="V5MwP_LQJQA790HmhcRP-66668544" value="Descargar manual" style="text;html=1;align=center;verticalAlign=middle;whiteSpace=wrap;rounded=0;" vertex="1" parent="1">
          <mxGeometry x="36" y="747" width="60" height="30" as="geometry" />
        </mxCell>
        <mxCell id="V5MwP_LQJQA790HmhcRP-66668545" value="" style="whiteSpace=wrap;html=1;aspect=fixed;" vertex="1" parent="1">
          <mxGeometry x="51" y="699" width="34" height="34" as="geometry" />
        </mxCell>
        <mxCell id="V5MwP_LQJQA790HmhcRP-66668546" value="" style="ellipse;whiteSpace=wrap;html=1;aspect=fixed;rotation=0;" vertex="1" parent="1">
          <mxGeometry x="-44" y="61" width="34" height="34" as="geometry" />
        </mxCell>
        <mxCell id="y1Z0iLRCGN_JdT7vQk1x-53" value="" style="endArrow=none;html=1;rounded=0;exitX=1;exitY=1;exitDx=0;exitDy=0;entryX=0;entryY=0.5;entryDx=0;entryDy=0;" edge="1" parent="1" source="V5MwP_LQJQA790HmhcRP-66668533" target="V5MwP_LQJQA790HmhcRP-66668541">
          <mxGeometry width="50" height="50" relative="1" as="geometry">
            <mxPoint x="-236" y="581" as="sourcePoint" />
            <mxPoint x="-186" y="531" as="targetPoint" />
          </mxGeometry>
        </mxCell>
        <mxCell id="V5MwP_LQJQA790HmhcRP-66668547" value="&lt;div&gt;DMW&lt;/div&gt;" style="text;html=1;align=center;verticalAlign=middle;whiteSpace=wrap;rounded=0;" vertex="1" parent="1">
          <mxGeometry x="-56" y="106" width="60" height="31" as="geometry" />
        </mxCell>
        <mxCell id="y1Z0iLRCGN_JdT7vQk1x-55" value="" style="endArrow=none;html=1;rounded=0;exitX=1;exitY=0.5;exitDx=0;exitDy=0;entryX=0;entryY=0.25;entryDx=0;entryDy=0;" edge="1" parent="1" source="V5MwP_LQJQA790HmhcRP-66668541" target="V5MwP_LQJQA790HmhcRP-66668545">
          <mxGeometry width="50" height="50" relative="1" as="geometry">
            <mxPoint x="11" y="744" as="sourcePoint" />
            <mxPoint x="61" y="694" as="targetPoint" />
          </mxGeometry>
        </mxCell>
        <mxCell id="LGbLucn3ORorXzo7Lwgj-1" value="" style="whiteSpace=wrap;html=1;aspect=fixed;" vertex="1" parent="1">
          <mxGeometry x="106" y="-33" width="34" height="34" as="geometry" />
        </mxCell>
        <mxCell id="LGbLucn3ORorXzo7Lwgj-2" value="Sobre nosotros" style="text;html=1;align=center;verticalAlign=middle;whiteSpace=wrap;rounded=0;" vertex="1" parent="1">
          <mxGeometry x="95" y="22" width="60" height="30" as="geometry" />
        </mxCell>
        <mxCell id="LGbLucn3ORorXzo7Lwgj-3" value="" style="ellipse;whiteSpace=wrap;html=1;aspect=fixed;rotation=0;" vertex="1" parent="1">
          <mxGeometry x="100" y="-158" width="34" height="34" as="geometry" />
        </mxCell>
        <mxCell id="LGbLucn3ORorXzo7Lwgj-5" value="&lt;div&gt;Contacto&lt;/div&gt;" style="text;html=1;align=center;verticalAlign=middle;whiteSpace=wrap;rounded=0;" vertex="1" parent="1">
          <mxGeometry x="89" y="-104" width="60" height="30" as="geometry" />
        </mxCell>
        <mxCell id="y1Z0iLRCGN_JdT7vQk1x-57" value="" style="endArrow=none;html=1;rounded=0;entryX=0;entryY=1;entryDx=0;entryDy=0;exitX=0.5;exitY=0;exitDx=0;exitDy=0;" edge="1" parent="1" source="V5MwP_LQJQA790HmhcRP-66668533" target="V5MwP_LQJQA790HmhcRP-66668546">
          <mxGeometry width="50" height="50" relative="1" as="geometry">
            <mxPoint x="-299" y="329" as="sourcePoint" />
            <mxPoint x="-249" y="279" as="targetPoint" />
          </mxGeometry>
        </mxCell>
        <mxCell id="LGbLucn3ORorXzo7Lwgj-10" value="" style="whiteSpace=wrap;html=1;aspect=fixed;" vertex="1" parent="1">
          <mxGeometry x="236" y="-159" width="34" height="34" as="geometry" />
        </mxCell>
        <mxCell id="LGbLucn3ORorXzo7Lwgj-11" value="Enviar Mensaje" style="text;html=1;align=center;verticalAlign=middle;whiteSpace=wrap;rounded=0;" vertex="1" parent="1">
          <mxGeometry x="226" y="-115" width="60" height="30" as="geometry" />
        </mxCell>
        <mxCell id="y1Z0iLRCGN_JdT7vQk1x-58" value="" style="endArrow=none;html=1;rounded=0;entryX=0;entryY=0.5;entryDx=0;entryDy=0;exitX=1;exitY=0;exitDx=0;exitDy=0;" edge="1" parent="1" source="V5MwP_LQJQA790HmhcRP-66668546" target="LGbLucn3ORorXzo7Lwgj-1">
          <mxGeometry width="50" height="50" relative="1" as="geometry">
            <mxPoint y="49" as="sourcePoint" />
            <mxPoint x="50" y="-1" as="targetPoint" />
          </mxGeometry>
        </mxCell>
        <mxCell id="y1Z0iLRCGN_JdT7vQk1x-59" value="" style="endArrow=none;html=1;rounded=0;exitX=1;exitY=0;exitDx=0;exitDy=0;entryX=0;entryY=1;entryDx=0;entryDy=0;" edge="1" parent="1" source="V5MwP_LQJQA790HmhcRP-66668546" target="LGbLucn3ORorXzo7Lwgj-3">
          <mxGeometry width="50" height="50" relative="1" as="geometry">
            <mxPoint x="-9" y="10" as="sourcePoint" />
            <mxPoint x="41" y="-40" as="targetPoint" />
          </mxGeometry>
        </mxCell>
        <mxCell id="y1Z0iLRCGN_JdT7vQk1x-60" value="" style="endArrow=none;html=1;rounded=0;exitX=1;exitY=0.5;exitDx=0;exitDy=0;entryX=0;entryY=0.5;entryDx=0;entryDy=0;" edge="1" parent="1" source="LGbLucn3ORorXzo7Lwgj-3" target="LGbLucn3ORorXzo7Lwgj-10">
          <mxGeometry width="50" height="50" relative="1" as="geometry">
            <mxPoint x="167" y="-106" as="sourcePoint" />
            <mxPoint x="217" y="-156" as="targetPoint" />
          </mxGeometry>
        </mxCell>
        <mxCell id="LGbLucn3ORorXzo7Lwgj-14" value="" style="ellipse;whiteSpace=wrap;html=1;aspect=fixed;rotation=0;" vertex="1" parent="1">
          <mxGeometry x="-46" y="806" width="34" height="34" as="geometry" />
        </mxCell>
        <mxCell id="LGbLucn3ORorXzo7Lwgj-15" value="Ranking" style="text;html=1;align=center;verticalAlign=middle;whiteSpace=wrap;rounded=0;" vertex="1" parent="1">
          <mxGeometry x="-56" y="852" width="60" height="30" as="geometry" />
        </mxCell>
        <mxCell id="LGbLucn3ORorXzo7Lwgj-16" value="Volver al inicio" style="text;html=1;align=center;verticalAlign=middle;whiteSpace=wrap;rounded=0;" vertex="1" parent="1">
          <mxGeometry x="36" y="865" width="60" height="30" as="geometry" />
        </mxCell>
        <mxCell id="LGbLucn3ORorXzo7Lwgj-17" value="" style="whiteSpace=wrap;html=1;aspect=fixed;" vertex="1" parent="1">
          <mxGeometry x="48" y="815" width="34" height="34" as="geometry" />
        </mxCell>
        <mxCell id="LGbLucn3ORorXzo7Lwgj-18" value="" style="endArrow=none;html=1;rounded=0;exitX=1;exitY=0.5;exitDx=0;exitDy=0;entryX=0;entryY=0.25;entryDx=0;entryDy=0;" edge="1" parent="1" source="LGbLucn3ORorXzo7Lwgj-14" target="LGbLucn3ORorXzo7Lwgj-17">
          <mxGeometry width="50" height="50" relative="1" as="geometry">
            <mxPoint x="-44" y="860" as="sourcePoint" />
            <mxPoint x="6" y="810" as="targetPoint" />
          </mxGeometry>
        </mxCell>
        <mxCell id="y1Z0iLRCGN_JdT7vQk1x-61" value="" style="endArrow=none;html=1;rounded=0;entryX=0.5;entryY=1;entryDx=0;entryDy=0;exitX=0;exitY=0;exitDx=0;exitDy=0;" edge="1" parent="1" source="LGbLucn3ORorXzo7Lwgj-14" target="V5MwP_LQJQA790HmhcRP-66668533">
          <mxGeometry width="50" height="50" relative="1" as="geometry">
            <mxPoint x="-330" y="580" as="sourcePoint" />
            <mxPoint x="-280" y="530" as="targetPoint" />
          </mxGeometry>
        </mxCell>
        <mxCell id="LGbLucn3ORorXzo7Lwgj-20" value="&lt;font style=&quot;font-size: 46px;&quot;&gt;Arbol de decisiones página Draftosaurus&lt;/font&gt;" style="text;html=1;align=center;verticalAlign=middle;resizable=0;points=[];autosize=1;strokeColor=none;fillColor=none;" vertex="1" parent="1">
          <mxGeometry x="-299" y="-266" width="847" height="67" as="geometry" />
        </mxCell>
      </root>
    </mxGraphModel>
  </diagram>
</mxfile>
